<svg width="12" height="12" viewBox="0 0 12 12" fill="none" xmlns="http://www.w3.org/2000/svg">
<g id="checkbox_fill">
<g id="Group">
<path id="Vector" fill-rule="evenodd" clip-rule="evenodd" d="M7.14 1C7.34988 1.00005 7.55442 1.06614 7.72465 1.1889C7.89489 1.31166 8.02218 1.48488 8.0885 1.684L8.36 2.5H10C10.1326 2.5 10.2598 2.55268 10.3536 2.64645C10.4473 2.74021 10.5 2.86739 10.5 3C10.5 3.13261 10.4473 3.25979 10.3536 3.35355C10.2598 3.44732 10.1326 3.5 10 3.5L9.9985 3.5355L9.565 9.607C9.53794 9.98531 9.36859 10.3393 9.09102 10.5978C8.81345 10.8562 8.44827 11 8.069 11H3.931C3.55173 11 3.18655 10.8562 2.90898 10.5978C2.63141 10.3393 2.46205 9.98531 2.435 9.607L2.0015 3.535C2.0006 3.52335 2.0001 3.51168 2 3.5C1.86739 3.5 1.74021 3.44732 1.64645 3.35355C1.55268 3.25979 1.5 3.13261 1.5 3C1.5 2.86739 1.55268 2.74021 1.64645 2.64645C1.74021 2.55268 1.86739 2.5 2 2.5H3.64L3.9115 1.684C3.97785 1.48479 4.10522 1.31153 4.27555 1.18876C4.44588 1.06599 4.65054 0.999949 4.8605 1H7.14ZM4.5 5C4.37753 5.00002 4.25933 5.04498 4.16781 5.12636C4.0763 5.20774 4.01783 5.31987 4.0035 5.4415L4 5.5V8.5C4.00014 8.62744 4.04894 8.75002 4.13642 8.84268C4.22391 8.93535 4.34348 8.99112 4.4707 8.99859C4.59792 9.00605 4.72319 8.96466 4.82092 8.88287C4.91864 8.80107 4.98145 8.68505 4.9965 8.5585L5 8.5V5.5C5 5.36739 4.94732 5.24021 4.85355 5.14645C4.75979 5.05268 4.63261 5 4.5 5ZM7.5 5C7.36739 5 7.24021 5.05268 7.14645 5.14645C7.05268 5.24021 7 5.36739 7 5.5V8.5C7 8.63261 7.05268 8.75979 7.14645 8.85355C7.24021 8.94732 7.36739 9 7.5 9C7.63261 9 7.75979 8.94732 7.85355 8.85355C7.94732 8.75979 8 8.63261 8 8.5V5.5C8 5.36739 7.94732 5.24021 7.85355 5.14645C7.75979 5.05268 7.63261 5 7.5 5ZM7.14 2H4.86L4.6935 2.5H7.3065L7.14 2Z" fill="#09244B"/>
</g>
</g>
</svg>
