<svg width="12" height="12" viewBox="0 0 12 12" fill="none" xmlns="http://www.w3.org/2000/svg">
<g id="uil:edit">
<path id="Vector" d="M10.5 5.99997C10.3674 5.99997 10.2402 6.05265 10.1464 6.14642C10.0527 6.24018 10 6.36736 10 6.49997V9.49997C10 9.63258 9.94732 9.75976 9.85355 9.85352C9.75979 9.94729 9.63261 9.99997 9.5 9.99997H2.5C2.36739 9.99997 2.24021 9.94729 2.14645 9.85352C2.05268 9.75976 2 9.63258 2 9.49997V2.49997C2 2.36736 2.05268 2.24018 2.14645 2.14642C2.24021 2.05265 2.36739 1.99997 2.5 1.99997H5.5C5.63261 1.99997 5.75979 1.94729 5.85355 1.85352C5.94732 1.75975 6 1.63258 6 1.49997C6 1.36736 5.94732 1.24018 5.85355 1.14642C5.75979 1.05265 5.63261 0.999969 5.5 0.999969H2.5C2.10218 0.999969 1.72064 1.158 1.43934 1.43931C1.15804 1.72061 1 2.10214 1 2.49997V9.49997C1 9.89779 1.15804 10.2793 1.43934 10.5606C1.72064 10.8419 2.10218 11 2.5 11H9.5C9.89782 11 10.2794 10.8419 10.5607 10.5606C10.842 10.2793 11 9.89779 11 9.49997V6.49997C11 6.36736 10.9473 6.24018 10.8536 6.14642C10.7598 6.05265 10.6326 5.99997 10.5 5.99997ZM3 6.37997V8.49997C3 8.63258 3.05268 8.75976 3.14645 8.85352C3.24021 8.94729 3.36739 8.99997 3.5 8.99997H5.62C5.6858 9.00035 5.75103 8.98774 5.81195 8.96286C5.87287 8.93797 5.92828 8.90131 5.975 8.85497L9.435 5.38997L10.855 3.99997C10.9019 3.95349 10.9391 3.89819 10.9644 3.83726C10.9898 3.77633 11.0029 3.71098 11.0029 3.64497C11.0029 3.57896 10.9898 3.51361 10.9644 3.45268C10.9391 3.39175 10.9019 3.33645 10.855 3.28997L8.735 1.14497C8.68852 1.09811 8.63322 1.06091 8.57229 1.03552C8.51136 1.01014 8.44601 0.99707 8.38 0.99707C8.31399 0.99707 8.24864 1.01014 8.18771 1.03552C8.12678 1.06091 8.07148 1.09811 8.025 1.14497L6.615 2.55997L3.145 6.02497C3.09866 6.07169 3.062 6.1271 3.03711 6.18802C3.01223 6.24894 2.99962 6.31417 3 6.37997ZM8.38 2.20497L9.795 3.61997L9.085 4.32997L7.67 2.91497L8.38 2.20497ZM4 6.58497L6.965 3.61997L8.38 5.03497L5.415 7.99997H4V6.58497Z" fill="#404656"/>
</g>
</svg>
