<svg width="20" height="20" viewBox="0 0 20 20" fill="none" xmlns="http://www.w3.org/2000/svg">
<g id="Interface essential/emai-1">
<g id="Icon">
<path fill-rule="evenodd" clip-rule="evenodd" d="M11.075 2.11918L16.7833 6.12751C17.6708 6.75123 18.1993 7.76778 18.2 8.85251V14.7942C18.1978 15.7379 17.8207 16.6421 17.1519 17.3079C16.483 17.9736 15.577 18.3464 14.6333 18.3442H5.23329C4.28956 18.3464 3.38361 17.9736 2.71473 17.3079C2.04585 16.6421 1.66883 15.7379 1.66663 14.7942V8.85251C1.66733 7.76778 2.19582 6.75123 3.08329 6.12751L8.79163 2.11918C9.43321 1.51594 10.4334 1.51594 11.075 2.11918ZM16.268 16.424C16.7024 15.9926 16.9478 15.4064 16.95 14.7942V8.85251C16.9383 8.18784 16.6101 7.56865 16.0666 7.18584L10.3583 3.17751L10.2666 3.11084C10.1789 3.02126 10.0587 2.97078 9.93329 2.97078C9.80787 2.97078 9.68773 3.02126 9.59996 3.11084L9.50829 3.17751L3.79996 7.18584C3.25647 7.56865 2.9283 8.18784 2.91663 8.85251V14.7942C2.91883 15.4064 3.16415 15.9926 3.59861 16.424C4.03307 16.8553 4.62108 17.0964 5.23329 17.0942H14.6333C15.2455 17.0964 15.8335 16.8553 16.268 16.424Z" fill="#959BA3"/>
<path d="M14.9916 9.17751L10.375 12.4025C10.2383 12.5392 10.0506 12.6125 9.85749 12.6046C9.66434 12.5967 9.48332 12.5083 9.35829 12.3608L4.87496 9.17751C4.69486 9.02175 4.44192 8.98186 4.22263 9.07461C4.00334 9.16737 3.8558 9.37667 3.84214 9.61438C3.82848 9.85209 3.95107 10.0769 4.15829 10.1942L8.57496 13.3442C8.93711 13.6813 9.41348 13.8689 9.90829 13.8692C10.3737 13.8574 10.8173 13.6698 11.15 13.3442L15.7083 10.1608C15.9703 9.96688 16.0393 9.60407 15.8666 9.32751C15.6647 9.04725 15.2754 8.98052 14.9916 9.17751Z" fill="#959BA3"/>
</g>
</g>
</svg>
