<svg width="12" height="12" viewBox="0 0 12 12" fill="none" xmlns="http://www.w3.org/2000/svg">
<g id="VIP_2_line" clip-path="url(#clip0_206_207)">
<g id="&#233;&#161;&#181;&#233;&#157;&#162;-1">
<g id="Business">
<g id="VIP_2_line_2">
<path id="&#229;&#189;&#162;&#231;&#138;&#182;" fill-rule="evenodd" clip-rule="evenodd" d="M6.49365 2.86986C6.79605 2.69788 7 2.37276 7 2C7 1.44771 6.5523 1 6 1C5.4477 1 5 1.44771 5 2C5 2.37359 5.20485 2.69934 5.5084 2.87102L5.5039 2.88015C5.17605 3.56345 4.72116 4.54236 4.01832 4.90985C3.44168 5.21135 2.61314 5.0597 1.99817 4.94719C1.97107 4.55762 1.64646 4.25 1.25 4.25C0.835785 4.25 0.5 4.58578 0.5 5C0.5 5.36735 0.76408 5.673 1.11275 5.73745L2.58632 9.5418C2.81002 10.1193 3.3657 10.5 3.98505 10.5H8.01495C8.6343 10.5 9.18995 10.1193 9.4137 9.5418L10.8872 5.73745C11.2359 5.673 11.5 5.36735 11.5 5C11.5 4.58578 11.1642 4.25 10.75 4.25C10.3611 4.25 10.0414 4.54592 10.0037 4.92485C9.37415 5.0065 8.56255 5.11065 7.9817 4.80691C7.29295 4.4468 6.8317 3.53537 6.49365 2.86986ZM6.0127 4.05364C6.39655 4.67636 6.8568 5.3472 7.5183 5.6931C8.18215 6.0402 8.99855 6.02255 9.72865 5.96005L8.4812 9.1806C8.4066 9.3731 8.2214 9.5 8.01495 9.5H3.98505C3.7786 9.5 3.59338 9.3731 3.51881 9.1806L2.28837 6.004C3.00794 6.0958 3.82197 6.14095 4.48168 5.79605C5.17025 5.436 5.6315 4.71021 6.0127 4.05364Z" fill="#60BF9D"/>
</g>
</g>
</g>
</g>
<defs>
<clipPath id="clip0_206_207">
<rect width="12" height="12" fill="white"/>
</clipPath>
</defs>
</svg>
