<svg width="12" height="12" viewBox="0 0 12 12" fill="none" xmlns="http://www.w3.org/2000/svg">
<g id="foundation:results">
<path id="Vector" d="M11.0532 2.63172C11.0532 2.51496 10.9585 2.4204 10.8419 2.4204L10.8411 2.42052V2.41992H5.33578V2.4216C5.28012 2.42189 5.22682 2.44413 5.18747 2.4835C5.14812 2.52287 5.12591 2.57618 5.12566 2.63184L5.12554 3.39288C5.12542 3.39648 5.12446 3.39972 5.12446 3.40332C5.12446 3.51996 5.21902 3.61452 5.33578 3.61464H10.8411L10.8419 3.61476C10.9586 3.61476 11.0532 3.52008 11.0532 3.40344V2.63172ZM11.0532 4.41984C11.0532 4.30308 10.9585 4.20852 10.8419 4.20852L10.8411 4.20864V4.20804H5.33578V4.20972C5.28012 4.21001 5.22682 4.23225 5.18747 4.27162C5.14812 4.31099 5.12591 4.3643 5.12566 4.41996L5.12554 5.18112C5.12542 5.18472 5.12446 5.18796 5.12446 5.19156C5.12446 5.3082 5.21902 5.40276 5.33578 5.40288H10.8411H10.8419C10.9586 5.40288 11.0532 5.3082 11.0532 5.19156V4.41984ZM3.92974 2.63124C3.92975 2.60349 3.9243 2.576 3.91368 2.55035C3.90307 2.52471 3.8875 2.50141 3.86788 2.48178C3.84825 2.46215 3.82495 2.44659 3.7993 2.43598C3.77366 2.42536 3.74617 2.41991 3.71842 2.41992C3.71326 2.41992 3.70834 2.42112 3.7033 2.42148H1.17322C1.16818 2.42112 1.16326 2.41992 1.1581 2.41992C1.04134 2.41992 0.946777 2.5146 0.946777 2.63124V5.19144C0.946777 5.30808 1.04134 5.40276 1.1581 5.40276H3.71842C3.83518 5.40276 3.92974 5.30808 3.92974 5.19144V2.63124ZM11.0532 6.80952C11.0532 6.69276 10.9585 6.5982 10.8419 6.5982L10.8411 6.59832V6.59772H5.33578V6.5994C5.28012 6.59969 5.22682 6.62193 5.18747 6.6613C5.14812 6.70067 5.12591 6.75398 5.12566 6.80964L5.12554 7.5708C5.12542 7.5744 5.12446 7.57764 5.12446 7.58124C5.12446 7.69788 5.21902 7.79256 5.33578 7.79256H10.8411H10.8419C10.9586 7.79256 11.0532 7.69788 11.0532 7.58124V6.80952ZM11.0532 8.59764C11.0532 8.48088 10.9585 8.38632 10.8419 8.38632L10.8411 8.38644V8.38584H5.33578V8.38752C5.28012 8.38781 5.22682 8.41005 5.18747 8.44942C5.14812 8.48879 5.12591 8.5421 5.12566 8.59776L5.12554 9.3588C5.12542 9.3624 5.12446 9.36564 5.12446 9.36924C5.12446 9.48588 5.21902 9.58056 5.33578 9.58056H10.8411H10.8419C10.9586 9.58056 11.0532 9.48588 11.0532 9.36924V8.59764ZM3.92974 6.80904C3.92974 6.69228 3.83518 6.5976 3.71842 6.5976C3.71326 6.5976 3.70834 6.5988 3.7033 6.59916H1.17322C1.16818 6.5988 1.16326 6.5976 1.1581 6.5976C1.04134 6.5976 0.946777 6.69228 0.946777 6.80904V9.36924C0.946777 9.48588 1.04146 9.58056 1.1581 9.58056H3.71842C3.83518 9.58056 3.92974 9.48588 3.92974 9.36924V6.80904Z" fill="#404656"/>
</g>
</svg>
