<svg width="12" height="12" viewBox="0 0 12 12" fill="none" xmlns="http://www.w3.org/2000/svg">
<g id="polkadot_DOT_fill" clip-path="url(#clip0_206_179)">
<g id="Group">
<path id="Vector" fill-rule="evenodd" clip-rule="evenodd" d="M5.99999 1C5.57999 1 5.17499 1.101 4.85899 1.291C4.55249 1.4745 4.24999 1.7985 4.24999 2.25C4.24999 2.7015 4.55249 3.025 4.85899 3.209C5.17499 3.399 5.57949 3.5 5.99999 3.5C6.41999 3.5 6.82499 3.399 7.14099 3.209C7.44749 3.0255 7.74999 2.7015 7.74999 2.25C7.74999 1.7985 7.44749 1.475 7.14099 1.291C6.82499 1.101 6.41999 1 5.99999 1ZM5.99999 8.5C5.57999 8.5 5.17499 8.601 4.85899 8.791C4.55249 8.9745 4.24999 9.298 4.24999 9.75C4.24999 10.202 4.55249 10.525 4.85899 10.709C5.17499 10.899 5.57949 11 5.99999 11C6.41999 11 6.82499 10.899 7.14099 10.709C7.44749 10.5255 7.74999 10.202 7.74999 9.75C7.74999 9.298 7.44749 8.975 7.14099 8.791C6.82499 8.601 6.41999 8.5 5.99999 8.5ZM1.66999 3.5C1.45999 3.864 1.34499 4.265 1.35099 4.6335C1.35699 4.991 1.48599 5.4145 1.87749 5.6405C2.26849 5.8665 2.69999 5.766 3.01249 5.593C3.33499 5.414 3.62499 5.114 3.83499 4.75C4.04499 4.386 4.15999 3.985 4.15349 3.6165C4.14749 3.259 4.01849 2.8355 3.62749 2.6095C3.23599 2.3835 2.80449 2.484 2.49249 2.657C2.16999 2.8365 1.87999 3.136 1.66999 3.5ZM8.16499 7.25C7.95499 7.614 7.83999 8.015 7.84649 8.3835C7.85249 8.741 7.98149 9.1645 8.37249 9.3905C8.76349 9.6165 9.19499 9.516 9.50749 9.343C9.82999 9.164 10.12 8.864 10.33 8.5C10.54 8.136 10.655 7.735 10.6485 7.3665C10.6425 7.009 10.5135 6.5855 10.1225 6.3595C9.73149 6.1335 9.29999 6.234 8.98749 6.4075C8.66499 6.586 8.37499 6.886 8.16499 7.25ZM2.49249 9.343C2.16999 9.164 1.87999 8.864 1.66999 8.5C1.45999 8.136 1.34499 7.735 1.35099 7.3665C1.35699 7.009 1.48599 6.5855 1.87749 6.3595C2.26849 6.1335 2.69999 6.234 3.01249 6.4075C3.33499 6.586 3.62499 6.886 3.83499 7.25C4.04499 7.614 4.15999 8.015 4.15349 8.3835C4.14749 8.741 4.01849 9.1645 3.62749 9.3905C3.23599 9.6165 2.80449 9.516 2.49249 9.343ZM8.98749 5.593C8.66499 5.414 8.37499 5.114 8.16499 4.75C7.95499 4.386 7.83999 3.985 7.84649 3.6165C7.85249 3.259 7.98149 2.8355 8.37249 2.6095C8.76349 2.3835 9.19499 2.484 9.50749 2.657C9.82999 2.8365 10.12 3.136 10.33 3.5C10.54 3.864 10.655 4.265 10.6485 4.6335C10.6425 4.991 10.5135 5.4145 10.1225 5.6405C9.73149 5.8665 9.29999 5.766 8.98749 5.593Z" fill="#EF887F"/>
</g>
</g>
<defs>
<clipPath id="clip0_206_179">
<rect width="12" height="12" fill="white"/>
</clipPath>
</defs>
</svg>
