<svg width="18" height="18" viewBox="0 0 18 18" fill="none" xmlns="http://www.w3.org/2000/svg">
<g id="layout_rightbar_open_line" clip-path="url(#clip0_327_2202)">
<g id="Group">
<path id="Vector" fill-rule="evenodd" clip-rule="evenodd" d="M6.20858 9.72862C6.01546 9.53526 5.90698 9.27315 5.90698 8.99987C5.90698 8.72659 6.01546 8.46448 6.20858 8.27112L10.0971 4.38125C10.2905 4.18788 10.5529 4.07928 10.8264 4.07935C10.9618 4.07938 11.096 4.10609 11.2211 4.15794C11.3462 4.2098 11.4599 4.2858 11.5556 4.38159C11.6514 4.47738 11.7273 4.59109 11.7791 4.71623C11.8309 4.84137 11.8575 4.97549 11.8575 5.11093C11.8575 5.24636 11.8308 5.38047 11.7789 5.50558C11.727 5.6307 11.6511 5.74437 11.5553 5.84012L8.3962 8.99987L11.556 12.1596C11.6545 12.2547 11.7331 12.3685 11.7872 12.4943C11.8413 12.62 11.8698 12.7553 11.8711 12.8923C11.8723 13.0292 11.8463 13.165 11.7945 13.2918C11.7427 13.4185 11.6662 13.5337 11.5694 13.6306C11.4726 13.7275 11.3575 13.8041 11.2308 13.856C11.1041 13.9079 10.9683 13.9341 10.8314 13.9329C10.6945 13.9318 10.5591 13.9034 10.4333 13.8494C10.3075 13.7955 10.1936 13.7169 10.0984 13.6185L6.2072 9.72862H6.20858Z" fill="#09244B"/>
</g>
</g>
<defs>
<clipPath id="clip0_327_2202">
<rect width="16.5" height="16.5" fill="white" transform="translate(0.75 0.75)"/>
</clipPath>
</defs>
</svg>
